<svg width="201" height="43" viewBox="0 0 201 43" fill="none" xmlns="http://www.w3.org/2000/svg">
<path d="M10.1124 9.05263C10.1124 4.053 14.1368 0 19.1011 0H41.573C51.5017 0 59.5506 8.106 59.5506 18.1053H91.0112C95.9756 18.1053 100 22.1583 100 27.1579C100 32.1575 95.9756 36.2105 91.0112 36.2105H68.5393C58.6106 36.2105 50.5618 28.1045 50.5618 18.1053H19.1011C14.1368 18.1053 10.1124 14.0523 10.1124 9.05263Z" fill="white"/>
<path d="M20.2247 32.8158C20.2247 38.4404 15.6973 43 10.1124 43C4.52745 43 0 38.4404 0 32.8158C0 27.1912 4.52745 22.6316 10.1124 22.6316C15.6973 22.6316 20.2247 27.1912 20.2247 32.8158Z" fill="white"/>
<path d="M108.945 21.365C108.945 19.8483 109.225 18.3667 109.785 16.92C110.345 15.45 111.162 14.12 112.235 12.93C113.308 11.74 114.615 10.795 116.155 10.095C117.695 9.37167 119.445 9.01 121.405 9.01C123.738 9.01 125.757 9.51167 127.46 10.515C129.187 11.5183 130.47 12.825 131.31 14.435L126.9 17.515C126.527 16.6283 126.025 15.94 125.395 15.45C124.788 14.96 124.112 14.6217 123.365 14.435C122.642 14.225 121.942 14.12 121.265 14.12C120.168 14.12 119.212 14.3417 118.395 14.785C117.578 15.205 116.902 15.7767 116.365 16.5C115.828 17.2233 115.432 18.0283 115.175 18.915C114.918 19.8017 114.79 20.6883 114.79 21.575C114.79 22.555 114.942 23.5 115.245 24.41C115.548 25.32 115.98 26.125 116.54 26.825C117.123 27.525 117.823 28.085 118.64 28.505C119.457 28.9017 120.355 29.1 121.335 29.1C122.035 29.1 122.747 28.9833 123.47 28.75C124.193 28.5167 124.858 28.155 125.465 27.665C126.095 27.1517 126.573 26.4867 126.9 25.67L131.59 28.435C131.1 29.6483 130.295 30.6867 129.175 31.55C128.055 32.4133 126.783 33.0783 125.36 33.545C123.96 33.9883 122.572 34.21 121.195 34.21C119.398 34.21 117.742 33.8483 116.225 33.125C114.732 32.3783 113.437 31.3983 112.34 30.185C111.267 28.9483 110.427 27.5717 109.82 26.055C109.237 24.515 108.945 22.9517 108.945 21.365Z" fill="white"/>
<path d="M132.867 28.505C132.867 27.2917 133.205 26.23 133.882 25.32C134.558 24.41 135.492 23.6983 136.682 23.185C137.872 22.6483 139.237 22.38 140.777 22.38C141.523 22.38 142.258 22.45 142.982 22.59C143.705 22.7067 144.335 22.8817 144.872 23.115V22.31C144.872 21.3067 144.568 20.5367 143.962 20C143.355 19.4633 142.433 19.195 141.197 19.195C140.17 19.195 139.202 19.37 138.292 19.72C137.405 20.07 136.46 20.5717 135.457 21.225L133.777 17.655C134.99 16.8617 136.25 16.2667 137.557 15.87C138.887 15.4733 140.287 15.275 141.757 15.275C144.51 15.275 146.645 15.94 148.162 17.27C149.702 18.5767 150.472 20.4783 150.472 22.975V27.77C150.472 28.33 150.553 28.7267 150.717 28.96C150.903 29.17 151.218 29.2983 151.662 29.345V34C151.195 34.0933 150.752 34.1633 150.332 34.21C149.935 34.2567 149.585 34.28 149.282 34.28C148.232 34.28 147.427 34.07 146.867 33.65C146.33 33.23 145.992 32.6583 145.852 31.935L145.747 31.13C144.93 32.18 143.95 32.985 142.807 33.545C141.687 34.0817 140.508 34.35 139.272 34.35C138.058 34.35 136.962 34.0933 135.982 33.58C135.025 33.0667 134.267 32.3667 133.707 31.48C133.147 30.5933 132.867 29.6017 132.867 28.505ZM143.997 29.205C144.253 28.995 144.463 28.7617 144.627 28.505C144.79 28.2483 144.872 28.0033 144.872 27.77V26.125C144.405 25.9383 143.88 25.7983 143.297 25.705C142.737 25.5883 142.212 25.53 141.722 25.53C140.695 25.53 139.843 25.7633 139.167 26.23C138.49 26.6733 138.152 27.2683 138.152 28.015C138.152 28.435 138.268 28.82 138.502 29.17C138.735 29.52 139.05 29.8 139.447 30.01C139.867 30.22 140.357 30.325 140.917 30.325C141.477 30.325 142.037 30.22 142.597 30.01C143.157 29.8 143.623 29.5317 143.997 29.205Z" fill="white"/>
<path d="M166.184 20.42C164.831 20.42 163.606 20.6417 162.509 21.085C161.413 21.505 160.619 22.135 160.129 22.975V34H154.529V15.625H159.674V19.335C160.304 18.0983 161.121 17.13 162.124 16.43C163.128 15.73 164.178 15.3683 165.274 15.345C165.531 15.345 165.718 15.345 165.834 15.345C165.974 15.345 166.091 15.3567 166.184 15.38V20.42Z" fill="white"/>
<path d="M180.198 20.42C178.845 20.42 177.62 20.6417 176.523 21.085C175.426 21.505 174.633 22.135 174.143 22.975V34H168.543V15.625H173.688V19.335C174.318 18.0983 175.135 17.13 176.138 16.43C177.142 15.73 178.191 15.3683 179.288 15.345C179.545 15.345 179.731 15.345 179.848 15.345C179.988 15.345 180.105 15.3567 180.198 15.38V20.42Z" fill="white"/>
<path d="M191.17 34.35C189.607 34.35 188.207 34.0933 186.97 33.58C185.757 33.0667 184.73 32.3667 183.89 31.48C183.05 30.5933 182.408 29.5783 181.965 28.435C181.545 27.2917 181.335 26.09 181.335 24.83C181.335 23.5467 181.545 22.3333 181.965 21.19C182.408 20.0467 183.05 19.0317 183.89 18.145C184.73 17.2583 185.757 16.5583 186.97 16.045C188.207 15.5317 189.607 15.275 191.17 15.275C192.733 15.275 194.122 15.5317 195.335 16.045C196.548 16.5583 197.575 17.2583 198.415 18.145C199.255 19.0317 199.897 20.0467 200.34 21.19C200.783 22.3333 201.005 23.5467 201.005 24.83C201.005 26.09 200.783 27.2917 200.34 28.435C199.897 29.5783 199.255 30.5933 198.415 31.48C197.575 32.3667 196.548 33.0667 195.335 33.58C194.122 34.0933 192.733 34.35 191.17 34.35ZM187.075 24.83C187.075 25.7867 187.25 26.6267 187.6 27.35C187.973 28.0733 188.463 28.6333 189.07 29.03C189.677 29.4267 190.377 29.625 191.17 29.625C191.94 29.625 192.628 29.4267 193.235 29.03C193.865 28.61 194.355 28.0383 194.705 27.315C195.055 26.5917 195.23 25.7633 195.23 24.83C195.23 23.8733 195.055 23.0333 194.705 22.31C194.355 21.5867 193.865 21.0267 193.235 20.63C192.628 20.2333 191.94 20.035 191.17 20.035C190.377 20.035 189.677 20.2333 189.07 20.63C188.463 21.0267 187.973 21.5867 187.6 22.31C187.25 23.0333 187.075 23.8733 187.075 24.83Z" fill="white"/>
</svg>
