<svg width="17" height="15" viewBox="0 0 17 15" fill="none" xmlns="http://www.w3.org/2000/svg">
<path d="M2.5 4V10.6848" stroke="#6F7887" stroke-linecap="square"/>
<path d="M8.5 4V10.6848" stroke="#6F7887" stroke-linecap="square"/>
<path d="M14.5 4V7.09998" stroke="#6F7887" stroke-linecap="square"/>
<path d="M3 7.5H14.5" stroke="#6F7887" stroke-linecap="square"/>
<path d="M4 2C4 2.82843 3.32843 3.5 2.5 3.5C1.67157 3.5 1 2.82843 1 2C1 1.17157 1.67157 0.5 2.5 0.5C3.32843 0.5 4 1.17157 4 2Z" stroke="#6F7887"/>
<path d="M10 2C10 2.82843 9.32843 3.5 8.5 3.5C7.67157 3.5 7 2.82843 7 2C7 1.17157 7.67157 0.5 8.5 0.5C9.32843 0.5 10 1.17157 10 2Z" stroke="#6F7887"/>
<path d="M16 2C16 2.82843 15.3284 3.5 14.5 3.5C13.6716 3.5 13 2.82843 13 2C13 1.17157 13.6716 0.5 14.5 0.5C15.3284 0.5 16 1.17157 16 2Z" stroke="#6F7887"/>
<path d="M4 13C4 13.8284 3.32843 14.5 2.5 14.5C1.67157 14.5 1 13.8284 1 13C1 12.1716 1.67157 11.5 2.5 11.5C3.32843 11.5 4 12.1716 4 13Z" stroke="#6F7887"/>
<path d="M10 13C10 13.8284 9.32843 14.5 8.5 14.5C7.67157 14.5 7 13.8284 7 13C7 12.1716 7.67157 11.5 8.5 11.5C9.32843 11.5 10 12.1716 10 13Z" stroke="#6F7887"/>
</svg>
