<svg width="100" height="43" viewBox="0 0 100 43" fill="none" xmlns="http://www.w3.org/2000/svg">
<path d="M10.1124 9.05263C10.1124 4.053 14.1368 0 19.1011 0H41.573C51.5017 0 59.5506 8.106 59.5506 18.1053H91.0112C95.9756 18.1053 100 22.1583 100 27.1579C100 32.1575 95.9756 36.2105 91.0112 36.2105H68.5393C58.6106 36.2105 50.5618 28.1045 50.5618 18.1053H19.1011C14.1368 18.1053 10.1124 14.0523 10.1124 9.05263Z" fill="#167FB3"/>
<path d="M20.2247 32.8158C20.2247 38.4404 15.6973 43 10.1124 43C4.52745 43 0 38.4404 0 32.8158C0 27.1912 4.52745 22.6316 10.1124 22.6316C15.6973 22.6316 20.2247 27.1912 20.2247 32.8158Z" fill="#00A59B"/>
</svg>
